Patient4_TMGait_0pt7_01_left_24_EMG.mot
version=1
nRows=17
nColumns=33
inDegrees=no
endheader
time	1LAddLong	2LGlutMax	3LGlutMed	4LIliopsoas	5LSemiMemb	6LBicFemLong	7LRecFem	8LVastMed	9LVastLat	10LGasMed	11LTibAnt	12lTibPost	13LPeroneusLong	14LSol	15LExtDigLong	16LFlexDigLong	17RAddLong	18RGlutMax	19RGlutMed	20RIliopsoas	21RSemiMemb	22RBicFemLong	23RRecFem	24RVastMed	25RVastLat	26RGasMed	27RTibAnt	28RTibPost	29RPeroneusLong	30RSol	31RExtDigLong	32RFlexDigLong
28.022	-0.000916	1.4059	0.048523	0.015717	-0.070953	0.030365	0.70496	0.010376	-0.23331	0.047913	0.017242	0.25131	-0.20752	-0.26916	0.03006	-0.11002	-0.052948	0.69794	-0.36957	0.001678	-0.28488	0.19806	0.61935	0.215	-0.010986	0.010681	0.18601	-0.004578	0.061493	0.025635	-0.001678	-0.032196
28.023	-0.016022	1.4339	0.038757	0.008392	-0.10193	0.17838	0.61432	0.012054	-0.20676	-0.004883	0.011902	-0.12314	-0.18753	-0.26688	-0.014954	0.36575	-0.039673	0.62302	-0.57816	0.015869	-0.22186	0.039215	0.73044	0.23254	-0.022583	0.011444	0.014801	-0.001068	0.028076	-0.11627	-0.001526	-0.040588
28.024	0.042725	1.3963	-0.019073	0.011597	-0.10956	0.46829	0.56808	0.009918	-0.20599	0.026398	0.024567	0.10529	-0.033722	-0.41672	-0.007477	-0.078583	-0.013123	0.51483	-0.69992	-0.042572	-0.16403	0.013275	0.8168	0.22583	-0.040131	0.011902	-0.063171	-0.004578	-0.013275	-0.20325	0.000916	-0.046234
28.025	0.001526	1.2605	-0.015717	0.003357	0.001678	0.5043	0.47318	0.020447	-0.19577	0.11673	0.015259	-0.015869	0.10407	-0.22522	-0.003967	-0.001831	-0.007629	0.36575	-0.55313	-0.029297	-0.16144	0.052795	0.85007	0.15747	-0.04364	0.005646	-0.32028	-0.006561	0.012054	-0.11154	-0.001373	-0.045166
28.026	-0.009918	1.2579	0.024872	0.007935	0.073242	0.20416	0.40375	0.0354	-0.21057	0.26428	0.003662	0.17868	0.14236	-0.20599	0.007629	0.4216	0.005798	0.29739	-0.57739	0.010834	-0.23926	0.14984	0.86426	0.17288	-0.059204	0.001373	-0.16296	-0.002136	0.02243	0.024872	-0.001221	-0.045013
28.027	0.036163	1.1717	0.009613	0.010681	0.052795	0.085449	0.23163	0.036621	-0.168	0.26916	0.017548	0.13321	0.095062	-0.055542	0.03067	0.13077	0.010681	0.26657	-0.53284	0.074615	-0.23361	0.04776	0.81955	0.1416	-0.050812	0.000153	0.020447	0	0.048523	0.052338	0.001526	-0.049286
28.028	0	1.1911	0.076599	-0.001831	-0.006561	0.18478	0.11032	0.024719	-0.10529	0.39444	0.06424	-0.14801	-0.082703	0.18372	0.056763	-0.21271	0.046844	0.22156	-0.42587	0.04776	-0.16342	-0.089569	0.90958	0.1564	-0.054169	0.006104	0.13428	-0.000153	0.039673	-0.024414	0.002899	-0.040283
28.029	0.014496	1.163	0.031128	0.002289	-0.06012	0.14008	0.04364	0.012054	-0.090332	0.8696	0.014496	0.31448	-0.21301	0.06424	0.030365	0.12924	0.040436	0.19577	-0.38803	0.029755	-0.15259	-0.27603	0.88913	0.14603	-0.054932	0.012207	0.3746	0.002289	-0.013733	-0.071716	-0.001526	-0.039825
28.03	0.019989	1.0258	-0.13977	0.012207	-0.11124	-0.064392	-0.053864	0.00824	-0.085449	1.2552	0.033112	0.97748	-0.26001	-0.061646	0.056763	-0.14191	0.028381	0.083618	-0.37125	0.014038	-0.18677	-0.28427	0.90057	0.14618	-0.056915	0.011597	0.43793	0.000916	-0.050201	-0.032654	-0.000763	-0.041656
28.031	0.024261	0.92545	-0.20432	0.011139	-0.12985	-0.44846	-0.14801	0.00946	0.003815	1.0828	0.010071	-0.70618	-0.27573	-0.04776	0.070648	-0.11871	0.026093	0.099335	-0.36026	0.033722	-0.23865	-0.24704	0.8931	0.11688	-0.036469	-0.007935	0.80383	0.003204	-0.11841	-0.007019	-0.003052	-0.035095
28.032	0.033875	0.83756	-0.019226	0.00824	-0.079498	-0.31937	-0.18845	0.004272	0.065308	0.5101	0.012207	0.078278	-0.24414	0.080109	0.036926	0.33722	0.051422	0.09491	-0.52856	0.032349	-0.27008	-0.15656	0.87616	0.019073	-0.046082	-0.000305	1.0292	0.001526	-0.19424	-0.036774	-0.009155	-0.033417
28.033	0.036011	0.76157	0.12711	0.018616	0.007629	-0.35355	-0.19608	0.002136	0.08667	0.63065	-0.000916	0.23758	-0.023346	-0.15472	0.010071	-0.53741	0.089417	0.069427	-0.45242	0.091705	-0.25604	-0.091858	0.8725	-0.050659	-0.061798	0.001526	0.59113	0.000763	-0.15686	-0.050964	-0.002747	-0.031738
28.034	0.042267	0.7576	0.13702	0.009918	0.039673	-0.37521	-0.21683	0.005035	0.075989	-0.17731	-0.00412	-0.014038	0.029602	0.1709	-0.027924	0.19821	0.12329	0.085602	-0.5188	0.15503	-0.24902	0.014954	0.89188	-0.01236	-0.059814	0.009003	0.009308	0.003662	0.0354	-0.083771	-0.002899	-0.030365
28.035	0.031281	0.77652	0.13504	0.008087	0.030823	-0.23407	-0.20615	0.006714	0.048981	-0.61829	-0.000916	0.25894	0.15747	0.18051	-0.050659	0.12711	0.09552	0.11398	-0.24338	0.085449	-0.26764	0.1471	0.9227	-0.007324	-0.033417	0.011597	-0.83618	0.003204	0.30563	-0.14862	-0.006256	-0.02243
28.036	0.036163	0.71014	-0.055389	-0.002747	-0.002594	-0.036621	-0.20432	0.015411	-0.096741	-0.13718	0.004883	-0.023651	0.31418	0.49133	-0.1033	0.15015	0.093231	0.15289	-0.20447	-0.018158	-0.3186	0.10147	0.93079	-0.030212	-0.035248	0.010986	-0.83344	0.00473	0.30487	-0.18112	-0.000763	-0.030975
28.037	0.016022	0.58304	-0.13534	-0.013428	-0.060425	0.1976	-0.16495	0.019531	-0.38528	-0.75455	0.002747	0.000305	0.28503	0.71793	-0.11627	0.028687	0.10056	0.14938	-0.32257	-0.061798	-0.37216	0.075378	0.87906	-0.084686	-0.031281	0.010681	-0.75012	0.004578	0.2536	-0.17639	-0.003204	-0.02533
28.038	0.004578	0.56702	-0.068054	-0.001984	-0.088348	-0.007782	-0.17014	0.016479	-0.40802	-0.62836	0.010223	-0.042267	0.18433	0.26566	-0.10391	0.030975	0.065613	0.1619	-0.75668	-0.066833	-0.37766	0.055084	0.77927	-0.12146	-0.017395	0.01358	-1.1794	0.007477	0.04715	-0.15717	-0.003052	-0.027466
